<svg xmlns="http://www.w3.org/2000/svg" xmlns:xlink="http://www.w3.org/1999/xlink" contentStyleType="text/css" data-diagram-type="DESCRIPTION" height="819px" preserveAspectRatio="none" style="width:1323px;height:819px;background:#FFFFFF;" version="1.1" viewBox="0 0 1323 819" width="1323px" zoomAndPan="magnify"><title>Arquitetura - SysEnvicorp (Simplificada)</title><defs/><g><g class="title" data-source-line="1"><text fill="#000000" font-family="sans-serif" font-size="14" font-weight="bold" lengthAdjust="spacing" textLength="317.9873" x="495.5484" y="22.9951">Arquitetura - SysEnvicorp (Simplificada)</text></g><!--cluster Public--><g class="cluster" data-entity="Public" data-source-line="5" data-uid="ent0003" id="cluster_Public"><path d="M376.5,182.0969 L425.6455,182.0969 A3.75,3.75 0 0 1 428.1455,184.5969 L435.1455,204.3937 L513.5,204.3937 A2.5,2.5 0 0 1 516,206.8937 L516,276.8869 A2.5,2.5 0 0 1 513.5,279.3869 L376.5,279.3869 A2.5,2.5 0 0 1 374,276.8869 L374,184.5969 A2.5,2.5 0 0 1 376.5,182.0969" fill="none" style="stroke:#000000;stroke-width:1.5;"/><line style="stroke:#000000;stroke-width:1.5;" x1="374" x2="435.1455" y1="204.3937" y2="204.3937"/><text fill="#000000" font-family="sans-serif" font-size="14" font-weight="bold" lengthAdjust="spacing" textLength="48.1455" x="378" y="197.092">Public</text></g><!--cluster App--><g class="cluster" data-entity="App" data-source-line="9" data-uid="ent0005" id="cluster_App"><path d="M8.5,312.3869 L40.3779,312.3869 A3.75,3.75 0 0 1 42.8779,314.8869 L49.8779,334.6838 L1004.5,334.6838 A2.5,2.5 0 0 1 1007,337.1838 L1007,707.7769 A2.5,2.5 0 0 1 1004.5,710.2769 L8.5,710.2769 A2.5,2.5 0 0 1 6,707.7769 L6,314.8869 A2.5,2.5 0 0 1 8.5,312.3869" fill="none" style="stroke:#000000;stroke-width:1.5;"/><line style="stroke:#000000;stroke-width:1.5;" x1="6" x2="49.8779" y1="334.6838" y2="334.6838"/><text fill="#000000" font-family="sans-serif" font-size="14" font-weight="bold" lengthAdjust="spacing" textLength="30.8779" x="10" y="327.382">App</text></g><!--cluster Controllers--><g class="cluster" data-entity="Controllers" data-source-line="10" data-uid="ent0006" id="cluster_Controllers"><path d="M32.5,355.3869 L120.9043,355.3869 A3.75,3.75 0 0 1 123.4043,357.8869 L130.4043,377.6838 L814.5,377.6838 A2.5,2.5 0 0 1 817,380.1838 L817,450.1869 A2.5,2.5 0 0 1 814.5,452.6869 L32.5,452.6869 A2.5,2.5 0 0 1 30,450.1869 L30,357.8869 A2.5,2.5 0 0 1 32.5,355.3869" fill="none" style="stroke:#000000;stroke-width:1.5;"/><line style="stroke:#000000;stroke-width:1.5;" x1="30" x2="130.4043" y1="377.6838" y2="377.6838"/><text fill="#000000" font-family="sans-serif" font-size="14" font-weight="bold" lengthAdjust="spacing" textLength="87.4043" x="34" y="370.382">Controllers</text></g><!--cluster Models--><g class="cluster" data-entity="Models" data-source-line="16" data-uid="ent0011" id="cluster_Models"><path d="M85.5,501.6869 L142.6982,501.6869 A3.75,3.75 0 0 1 145.1982,504.1869 L152.1982,523.9838 L606.5,523.9838 A2.5,2.5 0 0 1 609,526.4838 L609,596.4869 A2.5,2.5 0 0 1 606.5,598.9869 L85.5,598.9869 A2.5,2.5 0 0 1 83,596.4869 L83,504.1869 A2.5,2.5 0 0 1 85.5,501.6869" fill="none" style="stroke:#000000;stroke-width:1.5;"/><line style="stroke:#000000;stroke-width:1.5;" x1="83" x2="152.1982" y1="523.9838" y2="523.9838"/><text fill="#000000" font-family="sans-serif" font-size="14" font-weight="bold" lengthAdjust="spacing" textLength="56.1982" x="87" y="516.682">Models</text></g><!--entity FrontController--><g class="entity" data-entity="FrontController" data-source-line="6" data-uid="ent0004" id="entity_FrontController"><rect fill="#F1F1F1" height="46.2969" rx="2.5" ry="2.5" style="stroke:#181818;stroke-width:0.5;" width="109.6445" x="390.18" y="217.0969"/><rect fill="#F1F1F1" height="10" style="stroke:#181818;stroke-width:0.5;" width="15" x="479.8245" y="222.0969"/><rect fill="#F1F1F1" height="2" style="stroke:#181818;stroke-width:0.5;" width="4" x="477.8245" y="224.0969"/><rect fill="#F1F1F1" height="2" style="stroke:#181818;stroke-width:0.5;" width="4" x="477.8245" y="228.0969"/><text fill="#000000" font-family="sans-serif" font-size="14" lengthAdjust="spacing" textLength="69.6445" x="405.18" y="250.092">index.php</text></g><!--entity SessionManager--><g class="entity" data-entity="SessionManager" data-source-line="21" data-uid="ent0015" id="entity_SessionManager"><rect fill="#F1F1F1" height="46.2969" rx="2.5" ry="2.5" style="stroke:#181818;stroke-width:0.5;" width="154.7822" x="836.61" y="390.3869"/><rect fill="#F1F1F1" height="10" style="stroke:#181818;stroke-width:0.5;" width="15" x="971.3922" y="395.3869"/><rect fill="#F1F1F1" height="2" style="stroke:#181818;stroke-width:0.5;" width="4" x="969.3922" y="397.3869"/><rect fill="#F1F1F1" height="2" style="stroke:#181818;stroke-width:0.5;" width="4" x="969.3922" y="401.3869"/><text fill="#000000" font-family="sans-serif" font-size="14" lengthAdjust="spacing" textLength="114.7822" x="851.61" y="423.382">SessionManager</text></g><!--entity Connection--><g class="entity" data-entity="Connection" data-source-line="22" data-uid="ent0016" id="entity_Connection"><rect fill="#F1F1F1" height="46.2969" rx="2.5" ry="2.5" style="stroke:#181818;stroke-width:0.5;" width="119.2148" x="290.39" y="647.9869"/><rect fill="#F1F1F1" height="10" style="stroke:#181818;stroke-width:0.5;" width="15" x="389.6048" y="652.9869"/><rect fill="#F1F1F1" height="2" style="stroke:#181818;stroke-width:0.5;" width="4" x="387.6048" y="654.9869"/><rect fill="#F1F1F1" height="2" style="stroke:#181818;stroke-width:0.5;" width="4" x="387.6048" y="658.9869"/><text fill="#000000" font-family="sans-serif" font-size="14" lengthAdjust="spacing" textLength="79.2148" x="305.39" y="680.982">Connection</text></g><!--entity FinanceiroController--><g class="entity" data-entity="FinanceiroController" data-source-line="11" data-uid="ent0007" id="entity_FinanceiroController"><rect fill="#F1F1F1" height="46.2969" rx="2.5" ry="2.5" style="stroke:#181818;stroke-width:0.5;" width="181.9619" x="259.02" y="390.3869"/><rect fill="#F1F1F1" height="10" style="stroke:#181818;stroke-width:0.5;" width="15" x="420.9819" y="395.3869"/><rect fill="#F1F1F1" height="2" style="stroke:#181818;stroke-width:0.5;" width="4" x="418.9819" y="397.3869"/><rect fill="#F1F1F1" height="2" style="stroke:#181818;stroke-width:0.5;" width="4" x="418.9819" y="401.3869"/><text fill="#000000" font-family="sans-serif" font-size="14" lengthAdjust="spacing" textLength="141.9619" x="274.02" y="423.382">FinanceiroController</text></g><!--entity ContratosController--><g class="entity" data-entity="ContratosController" data-source-line="12" data-uid="ent0008" id="entity_ContratosController"><rect fill="#F1F1F1" height="46.2969" rx="2.5" ry="2.5" style="stroke:#181818;stroke-width:0.5;" width="177.5596" x="46.22" y="390.3869"/><rect fill="#F1F1F1" height="10" style="stroke:#181818;stroke-width:0.5;" width="15" x="203.7796" y="395.3869"/><rect fill="#F1F1F1" height="2" style="stroke:#181818;stroke-width:0.5;" width="4" x="201.7796" y="397.3869"/><rect fill="#F1F1F1" height="2" style="stroke:#181818;stroke-width:0.5;" width="4" x="201.7796" y="401.3869"/><text fill="#000000" font-family="sans-serif" font-size="14" lengthAdjust="spacing" textLength="137.5596" x="61.22" y="423.382">ContratosController</text></g><!--entity RhController--><g class="entity" data-entity="RhController" data-source-line="13" data-uid="ent0009" id="entity_RhController"><rect fill="#F1F1F1" height="46.2969" rx="2.5" ry="2.5" style="stroke:#181818;stroke-width:0.5;" width="127.7734" x="476.11" y="390.3869"/><rect fill="#F1F1F1" height="10" style="stroke:#181818;stroke-width:0.5;" width="15" x="583.8834" y="395.3869"/><rect fill="#F1F1F1" height="2" style="stroke:#181818;stroke-width:0.5;" width="4" x="581.8834" y="397.3869"/><rect fill="#F1F1F1" height="2" style="stroke:#181818;stroke-width:0.5;" width="4" x="581.8834" y="401.3869"/><text fill="#000000" font-family="sans-serif" font-size="14" lengthAdjust="spacing" textLength="87.7734" x="491.11" y="423.382">RhController</text></g><!--entity UsuarioController--><g class="entity" data-entity="UsuarioController" data-source-line="14" data-uid="ent0010" id="entity_UsuarioController"><rect fill="#F1F1F1" height="46.2969" rx="2.5" ry="2.5" style="stroke:#181818;stroke-width:0.5;" width="162.377" x="638.81" y="390.3869"/><rect fill="#F1F1F1" height="10" style="stroke:#181818;stroke-width:0.5;" width="15" x="781.187" y="395.3869"/><rect fill="#F1F1F1" height="2" style="stroke:#181818;stroke-width:0.5;" width="4" x="779.187" y="397.3869"/><rect fill="#F1F1F1" height="2" style="stroke:#181818;stroke-width:0.5;" width="4" x="779.187" y="401.3869"/><text fill="#000000" font-family="sans-serif" font-size="14" lengthAdjust="spacing" textLength="122.377" x="653.81" y="423.382">UsuarioController</text></g><!--entity FinancialModel--><g class="entity" data-entity="FinancialModel" data-source-line="17" data-uid="ent0012" id="entity_FinancialModel"><rect fill="#F1F1F1" height="46.2969" rx="2.5" ry="2.5" style="stroke:#181818;stroke-width:0.5;" width="144.3574" x="277.82" y="536.6869"/><rect fill="#F1F1F1" height="10" style="stroke:#181818;stroke-width:0.5;" width="15" x="402.1774" y="541.6869"/><rect fill="#F1F1F1" height="2" style="stroke:#181818;stroke-width:0.5;" width="4" x="400.1774" y="543.6869"/><rect fill="#F1F1F1" height="2" style="stroke:#181818;stroke-width:0.5;" width="4" x="400.1774" y="547.6869"/><text fill="#000000" font-family="sans-serif" font-size="14" lengthAdjust="spacing" textLength="104.3574" x="292.82" y="569.682">FinancialModel</text></g><!--entity EmpresaModel--><g class="entity" data-entity="EmpresaModel" data-source-line="18" data-uid="ent0013" id="entity_EmpresaModel"><rect fill="#F1F1F1" height="46.2969" rx="2.5" ry="2.5" style="stroke:#181818;stroke-width:0.5;" width="143.6465" x="99.18" y="536.6869"/><rect fill="#F1F1F1" height="10" style="stroke:#181818;stroke-width:0.5;" width="15" x="222.8265" y="541.6869"/><rect fill="#F1F1F1" height="2" style="stroke:#181818;stroke-width:0.5;" width="4" x="220.8265" y="543.6869"/><rect fill="#F1F1F1" height="2" style="stroke:#181818;stroke-width:0.5;" width="4" x="220.8265" y="547.6869"/><text fill="#000000" font-family="sans-serif" font-size="14" lengthAdjust="spacing" textLength="103.6465" x="114.18" y="569.682">EmpresaModel</text></g><!--entity UsuarioModel--><g class="entity" data-entity="UsuarioModel" data-source-line="19" data-uid="ent0014" id="entity_UsuarioModel"><rect fill="#F1F1F1" height="46.2969" rx="2.5" ry="2.5" style="stroke:#181818;stroke-width:0.5;" width="135.2383" x="457.38" y="536.6869"/><rect fill="#F1F1F1" height="10" style="stroke:#181818;stroke-width:0.5;" width="15" x="572.6183" y="541.6869"/><rect fill="#F1F1F1" height="2" style="stroke:#181818;stroke-width:0.5;" width="4" x="570.6183" y="543.6869"/><rect fill="#F1F1F1" height="2" style="stroke:#181818;stroke-width:0.5;" width="4" x="570.6183" y="547.6869"/><text fill="#000000" font-family="sans-serif" font-size="14" lengthAdjust="spacing" textLength="95.2383" x="472.38" y="569.682">UsuarioModel</text></g><!--entity User--><g class="entity" data-entity="User" data-source-line="3" data-uid="ent0002" id="entity_User"><ellipse cx="445.0027" cy="51.2969" fill="#F1F1F1" rx="8" ry="8" style="stroke:#181818;stroke-width:0.5;"/><path d="M445.0027,59.2969 L445.0027,86.2969 M432.0027,67.2969 L458.0027,67.2969 M445.0027,86.2969 L432.0027,101.2969 M445.0027,86.2969 L458.0027,101.2969" fill="none" style="stroke:#181818;stroke-width:0.5;"/><text fill="#000000" font-family="sans-serif" font-size="14" lengthAdjust="spacing" textLength="143.4453" x="373.28" y="115.792">Usu&#225;rio / Navegador</text></g><!--entity DB--><g class="entity" data-entity="DB" data-source-line="25" data-uid="ent0017" id="entity_DB"><path d="M283.09,767.2769 C283.09,757.2769 350.0026,757.2769 350.0026,757.2769 C350.0026,757.2769 416.9152,757.2769 416.9152,767.2769 L416.9152,792.5738 C416.9152,802.5738 350.0026,802.5738 350.0026,802.5738 C350.0026,802.5738 283.09,802.5738 283.09,792.5738 L283.09,767.2769" fill="#F1F1F1" style="stroke:#181818;stroke-width:0.5;"/><path d="M283.09,767.2769 C283.09,777.2769 350.0026,777.2769 350.0026,777.2769 C350.0026,777.2769 416.9152,777.2769 416.9152,767.2769" fill="none" style="stroke:#181818;stroke-width:0.5;"/><text fill="#000000" font-family="sans-serif" font-size="14" lengthAdjust="spacing" textLength="113.8252" x="293.09" y="794.272">Banco de Dados</text></g><!--entity Vendor--><g class="entity" data-entity="Vendor" data-source-line="26" data-uid="ent0018" id="entity_Vendor"><path d="M1148.42,532.6869 L1189.42,532.6869 A3.75,3.75 0 0 1 1191.92,535.1869 L1198.92,553.6869 L1313.5841,553.6869 A2.5,2.5 0 0 1 1316.0841,556.1869 L1316.0841,584.4838 A2.5,2.5 0 0 1 1313.5841,586.9838 L1148.42,586.9838 A2.5,2.5 0 0 1 1145.92,584.4838 L1145.92,535.1869 A2.5,2.5 0 0 1 1148.42,532.6869" fill="#F1F1F1" style="stroke:#181818;stroke-width:0.5;"/><line style="stroke:#181818;stroke-width:0.5;" x1="1145.92" x2="1198.92" y1="553.6869" y2="553.6869"/><text fill="#000000" font-family="sans-serif" font-size="14" lengthAdjust="spacing" textLength="140.1641" x="1155.92" y="573.682">vendor/ (Composer)</text></g><!--entity Storage--><g class="entity" data-entity="Storage" data-source-line="27" data-uid="ent0019" id="entity_Storage"><path d="M1025.55,532.6869 L1066.55,532.6869 A3.75,3.75 0 0 1 1069.05,535.1869 L1076.05,553.6869 L1108.4504,553.6869 A2.5,2.5 0 0 1 1110.9504,556.1869 L1110.9504,584.4838 A2.5,2.5 0 0 1 1108.4504,586.9838 L1025.55,586.9838 A2.5,2.5 0 0 1 1023.05,584.4838 L1023.05,535.1869 A2.5,2.5 0 0 1 1025.55,532.6869" fill="#F1F1F1" style="stroke:#181818;stroke-width:0.5;"/><line style="stroke:#181818;stroke-width:0.5;" x1="1023.05" x2="1076.05" y1="553.6869" y2="553.6869"/><text fill="#000000" font-family="sans-serif" font-size="14" lengthAdjust="spacing" textLength="57.9004" x="1033.05" y="573.682">storage/</text></g><g class="entity" data-entity="GMN34" data-source-line="48" data-uid="ent0035" id="entity_GMN34"><path d="M534.4,227.6769 L534.4,236.2369 L500.01,240.2369 L534.4,244.2369 L534.4,252.8097 A0,0 0 0 0 534.4,252.8097 L813.5909,252.8097 A0,0 0 0 0 813.5909,252.8097 L813.5909,237.6769 L803.5909,227.6769 L534.4,227.6769 A0,0 0 0 0 534.4,227.6769" fill="#FEFFDD" style="stroke:#181818;stroke-width:0.5;"/><path d="M803.5909,227.6769 L803.5909,237.6769 L813.5909,237.6769 L803.5909,227.6769" fill="#FEFFDD" style="stroke:#181818;stroke-width:0.5;"/><text fill="#000000" font-family="sans-serif" font-size="13" lengthAdjust="spacing" textLength="258.1909" x="540.4" y="244.7438">Roteamento: URL -&gt; Controller -&gt; A&#231;&#227;o</text></g><!--link User to FrontController--><g class="link" data-entity-1="User" data-entity-2="FrontController" data-link-type="dependency" data-source-line="29" data-uid="lnk20" id="link_User_FrontController"><path d="M445,119.2169 C445,149.5669 445,185.3969 445,210.8069" fill="none" id="User-to-FrontController" style="stroke:#181818;stroke-width:1;"/><polygon fill="#181818" points="445,216.8069,449,207.8069,445,211.8069,441,207.8069,445,216.8069" style="stroke:#181818;stroke-width:1;"/><text fill="#000000" font-family="sans-serif" font-size="13" lengthAdjust="spacing" textLength="91.019" x="446" y="162.1638">HTTP Request</text></g><!--link FrontController to FinanceiroController--><g class="link" data-entity-1="FrontController" data-entity-2="FinanceiroController" data-link-type="dependency" data-source-line="30" data-uid="lnk21" id="link_FrontController_FinanceiroController"><path d="M432.58,263.6369 C414.37,296.4669 383.5403,352.06 365.3303,384.89" fill="none" id="FrontController-to-FinanceiroController" style="stroke:#181818;stroke-width:1;"/><polygon fill="#181818" points="362.42,390.1369,370.2834,384.2067,364.8453,385.7645,363.2876,380.3263,362.42,390.1369" style="stroke:#181818;stroke-width:1;"/></g><!--link FrontController to ContratosController--><g class="link" data-entity-1="FrontController" data-entity-2="ContratosController" data-link-type="dependency" data-source-line="31" data-uid="lnk22" id="link_FrontController_ContratosController"><path d="M389.84,250.7869 C347.19,259.9069 287.89,276.4969 242,304.3869 C204.53,327.1669 174.3791,361.1607 155.1891,385.5607" fill="none" id="FrontController-to-ContratosController" style="stroke:#181818;stroke-width:1;"/><polygon fill="#181818" points="151.48,390.2769,160.1878,385.6754,154.571,386.3467,153.8996,380.7299,151.48,390.2769" style="stroke:#181818;stroke-width:1;"/></g><!--link FrontController to RhController--><g class="link" data-entity-1="FrontController" data-entity-2="RhController" data-link-type="dependency" data-source-line="32" data-uid="lnk23" id="link_FrontController_RhController"><path d="M457.42,263.6369 C475.63,296.4669 506.4597,352.06 524.6697,384.89" fill="none" id="FrontController-to-RhController" style="stroke:#181818;stroke-width:1;"/><polygon fill="#181818" points="527.58,390.1369,526.7124,380.3263,525.1547,385.7645,519.7166,384.2067,527.58,390.1369" style="stroke:#181818;stroke-width:1;"/></g><!--link FrontController to UsuarioController--><g class="link" data-entity-1="FrontController" data-entity-2="UsuarioController" data-link-type="dependency" data-source-line="33" data-uid="lnk24" id="link_FrontController_UsuarioController"><path d="M474.01,263.6869 C486.59,272.3669 501.89,281.5969 517,287.3869 C560.73,304.1469 579.8,282.1069 621,304.3869 C658.61,324.7369 686.1791,359.9497 702.9591,385.1997" fill="none" id="FrontController-to-UsuarioController" style="stroke:#181818;stroke-width:1;"/><polygon fill="#181818" points="706.28,390.1969,704.6301,380.4872,703.5126,386.0326,697.9672,384.915,706.28,390.1969" style="stroke:#181818;stroke-width:1;"/></g><!--link FinanceiroController to FinancialModel--><g class="link" data-entity-1="FinanceiroController" data-entity-2="FinancialModel" data-link-type="dependency" data-source-line="35" data-uid="lnk25" id="link_FinanceiroController_FinancialModel"><path d="M350,437.0869 C350,464.1969 350,503.4069 350,530.4469" fill="none" id="FinanceiroController-to-FinancialModel" style="stroke:#181818;stroke-width:1;"/><polygon fill="#181818" points="350,536.4469,354,527.4469,350,531.4469,346,527.4469,350,536.4469" style="stroke:#181818;stroke-width:1;"/></g><!--link ContratosController to EmpresaModel--><g class="link" data-entity-1="ContratosController" data-entity-2="EmpresaModel" data-link-type="dependency" data-source-line="36" data-uid="lnk26" id="link_ContratosController_EmpresaModel"><path d="M140.62,437.0869 C147.39,464.1969 157.2188,503.585 163.9588,530.625" fill="none" id="ContratosController-to-EmpresaModel" style="stroke:#181818;stroke-width:1;"/><polygon fill="#181818" points="165.41,536.4469,167.1145,526.7466,164.2007,531.5953,159.352,528.6815,165.41,536.4469" style="stroke:#181818;stroke-width:1;"/></g><!--link UsuarioController to UsuarioModel--><g class="link" data-entity-1="UsuarioController" data-entity-2="UsuarioModel" data-link-type="dependency" data-source-line="37" data-uid="lnk27" id="link_UsuarioController_UsuarioModel"><path d="M689.53,437.0869 C653,464.1169 596.9732,505.578 560.4032,532.638" fill="none" id="UsuarioController-to-UsuarioModel" style="stroke:#181818;stroke-width:1;"/><polygon fill="#181818" points="555.58,536.2069,565.194,534.069,559.5993,533.2328,560.4355,527.6381,555.58,536.2069" style="stroke:#181818;stroke-width:1;"/></g><!--link FinancialModel to Connection--><g class="link" data-entity-1="FinancialModel" data-entity-2="Connection" data-link-type="dependency" data-source-line="39" data-uid="lnk28" id="link_FinancialModel_Connection"><path d="M350,583.4769 C350,602.2369 350,622.7669 350,641.5169" fill="none" id="FinancialModel-to-Connection" style="stroke:#181818;stroke-width:1;"/><polygon fill="#181818" points="350,647.5169,354,638.5169,350,642.5169,346,638.5169,350,647.5169" style="stroke:#181818;stroke-width:1;"/></g><!--link EmpresaModel to Connection--><g class="link" data-entity-1="EmpresaModel" data-entity-2="Connection" data-link-type="dependency" data-source-line="40" data-uid="lnk29" id="link_EmpresaModel_Connection"><path d="M208.09,583.4769 C238.81,602.2369 277.129,625.6403 307.839,644.3903" fill="none" id="EmpresaModel-to-Connection" style="stroke:#181818;stroke-width:1;"/><polygon fill="#181818" points="312.96,647.5169,307.363,639.413,308.6925,644.9114,303.1941,646.2409,312.96,647.5169" style="stroke:#181818;stroke-width:1;"/></g><!--link UsuarioModel to Connection--><g class="link" data-entity-1="UsuarioModel" data-entity-2="Connection" data-link-type="dependency" data-source-line="41" data-uid="lnk30" id="link_UsuarioModel_Connection"><path d="M488.74,583.4769 C458.71,602.2369 421.3294,625.5892 391.2994,644.3392" fill="none" id="UsuarioModel-to-Connection" style="stroke:#181818;stroke-width:1;"/><polygon fill="#181818" points="386.21,647.5169,395.9626,646.1433,390.4512,644.8688,391.7257,639.3574,386.21,647.5169" style="stroke:#181818;stroke-width:1;"/></g><!--link Connection to DB--><g class="link" data-entity-1="Connection" data-entity-2="DB" data-link-type="dependency" data-source-line="42" data-uid="lnk31" id="link_Connection_DB"><path d="M350,694.5169 C350,712.8669 350,732.6969 350,750.9369" fill="none" id="Connection-to-DB" style="stroke:#181818;stroke-width:1;"/><polygon fill="#181818" points="350,756.9369,354,747.9369,350,751.9369,346,747.9369,350,756.9369" style="stroke:#181818;stroke-width:1;"/></g><!--link FinanceiroController to Vendor--><g class="link" data-entity-1="FinanceiroController" data-entity-2="Vendor" data-link-type="dependency" data-source-line="44" data-uid="lnk32" id="link_FinanceiroController_Vendor"><path d="M393.63,437.1669 C413.11,446.1669 436.66,455.5769 459,460.6869 C495.27,468.9869 1092.52,482.4569 1128,493.6869 C1153.82,501.8569 1174.7428,528.2526 1194.0328,542.4926" fill="none" id="FinanceiroController-to-Vendor" style="stroke:#181818;stroke-width:1;"/><polygon fill="#181818" points="1198.86,546.0561,1193.9949,537.4928,1194.8373,543.0865,1189.2436,543.929,1198.86,546.0561" style="stroke:#181818;stroke-width:1;"/><text fill="#000000" font-family="sans-serif" font-size="13" lengthAdjust="spacing" textLength="119.4756" x="1021" y="481.7538">usa (Dompdf, libs)</text></g><!--link FinanceiroController to Storage--><g class="link" data-entity-1="FinanceiroController" data-entity-2="Storage" data-link-type="dependency" data-source-line="45" data-uid="lnk33" id="link_FinanceiroController_Storage"><path d="M396.58,437.1769 C415.57,445.6269 437.97,454.6369 459,460.6869 C565.99,491.4869 895.3012,536.345 1016.6512,552.295" fill="none" id="FinanceiroController-to-Storage" style="stroke:#181818;stroke-width:1;"/><polygon fill="#181818" points="1022.6,553.0769,1014.198,547.9381,1017.6426,552.4253,1013.1555,555.8699,1022.6,553.0769" style="stroke:#181818;stroke-width:1;"/></g><!--SRC=[TLFBRjj03BplLn0wsK1TttC8uCG9UcY2m8vx2NoW9TfUL5vkTbT6YY8VK_JG3_6FbLhviP6KWm1fXfmXEL3GeIIOkDTA1mgLGnZ1_9U_CtkTixCmcEkTBVLQvrZWK2dC0pjOU7A07hA5hmv_d6OOmoFkQOC5kqmfY_bFt11aJzMgr7a6lnN0YpO5lNsrMxkiU-yTct0hZ-Eo9AVUaxQ9jKtF6RaK-eOHlNjjqEIa7L_OPKD500Fx3ZFRTY1P0cM7Z_Xxwlx01PLjOurbn8ygTplho6CA7ONFKAtvCYVlDPi7D28ThUff3UL1q6LzXW83hj2BxutOC1G4Kpci-ClPfZTgpMKXzy_sPEJSOnZSyiwoH3AC5JyYVAxo4fWuZICtRpwKYWcEHjVj6E0AlZq_Fy6CNYloGRNfsD9pzzx2dXHwwz9CUWiw2IdLDqGotIaSrJD3B4lZKXtzrBKfKHzrJ_iTSrEfN9jBTThSvJKoakxdcpN1IaALHnXC9VHY_GLAlVB3pvlEYHiE14vljW5utVdx06R2uuvCu2jOpBx3AR-Zr3LC3lyEVrd9451h_GS0]--></g></svg>